<?xml version="1.0" standalone="no"?>
<!DOCTYPE svg PUBLIC "-//W3C//DTD SVG 20010904//EN"
 "http://www.w3.org/TR/2001/REC-SVG-20010904/DTD/svg10.dtd">
<svg version="1.0" xmlns="http://www.w3.org/2000/svg"
 width="512.000000pt" height="512.000000pt" viewBox="0 0 512.000000 512.000000"
 preserveAspectRatio="xMidYMid meet">
<metadata>
Created by potrace 1.11, written by Peter Selinger 2001-2013
</metadata>
<g transform="translate(0.000000,512.000000) scale(0.100000,-0.100000)"
fill="#000000" stroke="none">
<path d="M2257 3928 c-115 -19 -172 -34 -267 -70 -188 -72 -381 -199 -527
-348 -29 -29 -51 -55 -49 -58 3 -2 36 -10 73 -18 37 -8 107 -26 155 -41 l88
-26 53 51 c114 107 272 187 467 234 81 19 318 17 400 -5 320 -85 539 -342 644
-758 14 -53 27 -114 30 -135 4 -21 10 -62 14 -90 5 -29 8 -63 7 -78 0 -14 0
-26 1 -26 0 0 17 24 38 54 70 102 206 216 312 261 85 36 133 47 239 51 119 4
186 -9 290 -56 209 -95 354 -316 357 -544 3 -206 -189 -411 -452 -482 -89 -25
-307 -25 -407 -1 -128 30 -292 96 -360 145 -17 12 -34 22 -37 22 -24 0 -277
197 -436 341 -114 102 -322 268 -445 356 -100 71 -271 183 -279 183 -2 0 -33
18 -69 39 -150 92 -400 200 -577 250 -467 134 -874 63 -1205 -209 -212 -174
-292 -346 -300 -645 -7 -268 77 -495 247 -663 55 -54 199 -170 205 -165 2 1
27 -8 56 -21 140 -62 303 -93 595 -113 141 -9 1542 -3 1542 7 0 7 -16 20 -120
100 -47 35 -87 67 -90 70 -10 12 -276 197 -349 242 l-76 47 -415 -1 c-488 0
-568 5 -773 47 -57 12 -159 55 -213 91 -185 123 -211 374 -57 553 196 230 612
184 1158 -129 61 -34 116 -63 122 -63 7 0 11 -2 8 -5 -2 -2 11 -15 30 -28 18
-12 125 -98 237 -191 112 -93 226 -186 253 -208 28 -22 52 -42 55 -45 7 -7
130 -104 210 -167 118 -91 435 -303 453 -303 4 0 28 -13 54 -28 117 -69 284
-126 433 -148 25 -3 54 -8 64 -10 76 -14 306 -20 398 -9 143 16 271 51 388
107 172 82 327 220 431 383 140 220 196 404 197 643 0 104 -4 151 -21 242 -21
109 -105 292 -183 397 -288 385 -771 538 -1195 379 -49 -18 -89 -30 -89 -25 0
13 -121 172 -174 228 -293 307 -731 457 -1139 389z"/>
</g>
</svg>
